
<svg height="464pt" viewBox="0 0 464 464" width="464pt" xmlns="http://www.w3.org/2000/svg"><path d="m384 368c0 8.835938-7.164062 16-16 16s-16-7.164062-16-16 7.164062-16 16-16 16 7.164062 16 16zm0 0"/><path d="m368 320c-26.472656 0-48 21.527344-48 48s21.527344 48 48 48 48-21.527344 48-48-21.527344-48-48-48zm0 80c-17.648438 0-32-14.351562-32-32s14.351562-32 32-32 32 14.351562 32 32-14.351562 32-32 32zm0 0"/><path d="m443.3125 394.734375 1.429688-4.03125 19.257812-4.910156v-35.578125l-19.257812-4.910156-1.429688-4.03125c-.914062-2.609376-1.976562-5.152344-3.160156-7.625l-1.839844-3.847657 10.144531-17.097656-25.152343-25.152344-17.097657 10.144531-3.847656-1.839843c-2.480469-1.175781-5.015625-2.238281-7.625-3.160157l-4.03125-1.429687-4.910156-19.265625h-35.578125l-4.910156 19.257812-4.03125 1.429688c-2.609376.914062-5.152344 1.976562-7.625 3.160156l-3.847657 1.839844-17.097656-10.144531-25.152344 25.152343 10.144531 17.097657-1.839843 3.847656c-1.175781 2.480469-2.238281 5.015625-3.160157 7.625l-1.429687 4.03125-19.265625 4.910156v35.578125l19.257812 4.910156 1.429688 4.03125c.914062 2.609376 1.976562 5.152344 3.160156 7.625l1.839844 3.847657-10.144531 17.097656 25.152343 25.152344 17.097657-10.144531 3.847656 1.839843c2.480469 1.175781 5.015625 2.238281 7.625 3.160157l4.03125 1.429687 4.910156 19.265625h35.578125l4.910156-19.257812 4.03125-1.429688c2.609376-.914062 5.152344-1.976562 7.625-3.160156l3.847657-1.839844 17.097656 10.144531 25.152344-25.152343-10.144531-17.097657 1.839843-3.847656c1.191407-2.480469 2.253907-5.015625 3.167969-7.625zm-75.3125 37.265625c-35.289062 0-64-28.710938-64-64s28.710938-64 64-64 64 28.710938 64 64-28.710938 64-64 64zm0 0"/><path d="m269.679688 165.671875-10.246094-3.839844-16.128906 26.871094 16.023437 8.015625zm0 0"/><path d="m312 198.175781c0-9.953125-6.257812-18.976562-15.566406-22.472656l-11.769532-4.414063-15.992187 47.984376-36.671875-18.328126-36.671875 18.335938-15.992187-47.984375-11.761719 4.40625c-9.316407 3.496094-15.574219 12.519531-15.574219 22.472656v25.824219h160zm0 0"/><path d="m184 101.777344v-27.546875c-4.761719 2.777343-8 7.882812-8 13.777343 0 5.894532 3.238281 10.992188 8 13.769532zm0 0"/><path d="m232 136c17.648438 0 32-14.351562 32-32v-32.542969c-11.710938-1.234375-22.761719-5.503906-32-12.769531-9.238281 7.273438-20.289062 11.535156-32 12.769531v32.542969c0 17.648438 14.351562 32 32 32zm0 0"/><path d="m193.375 56c12.457031 0 24.167969-4.847656 32.96875-13.65625l5.65625-5.664062 5.65625 5.664062c8.808594 8.808594 20.511719 13.65625 32.96875 13.65625h1.375c5.855469 0 11.273438 1.695312 16 4.449219v-4.449219c0-30.878906-25.128906-56-56-56s-56 25.121094-56 56v4.449219c4.726562-2.753907 10.144531-4.449219 16-4.449219zm0 0"/><path d="m204.671875 196.71875 16.023437-8.015625-16.128906-26.871094-10.246094 3.839844zm0 0"/><path d="m280 101.777344c4.761719-2.777344 8-7.882813 8-13.777344s-3.238281-11-8-13.777344zm0 0"/><path d="m248 149.785156v-.585937c-5.015625 1.777343-10.382812 2.800781-16 2.800781s-10.984375-1.023438-16-2.800781v.585937l16 26.664063zm0 0"/><path d="m0 464h128v-176h-128zm112-16h-16v-16h16zm0-96h-64v-16h64zm-96-48h96v16h-96zm0 32h16v16h-16zm0 32h96v16h-96zm0 32h96v16h-96zm0 32h64v16h-64zm0 0"/><path d="m197.65625 341.65625-11.3125-11.3125-37.65625 37.65625 37.65625 37.65625 11.3125-11.3125-18.34375-18.34375h60.6875v-16h-60.6875zm0 0"/><path d="m98.34375 69.65625 18.34375 18.34375h-36.6875c-13.230469 0-24 10.769531-24 24v144h16v-144c0-4.40625 3.585938-8 8-8h36.6875l-18.34375 18.34375 11.3125 11.3125 37.65625-37.65625-37.65625-37.65625zm0 0"/><path d="m368 112v100.6875l-18.34375-18.34375-11.3125 11.3125 37.65625 37.65625 37.65625-37.65625-11.3125-11.3125-18.34375 18.34375v-100.6875c0-13.230469-10.769531-24-24-24h-40v16h40c4.414062 0 8 3.59375 8 8zm0 0"/></svg>